<svg width="1440" height="6592" viewBox="0 0 1440 6592" fill="none" xmlns="http://www.w3.org/2000/svg">
<g clip-path="url(#clip0_2426_26133)">
<g filter="url(#filter0_f_2426_26133)">
<circle cx="316.193" cy="325.193" r="194.693" stroke="url(#paint0_linear_2426_26133)" stroke-opacity="0.5" stroke-width="15"/>
</g>
<circle cx="316.193" cy="325.193" r="196.193" stroke="url(#paint1_linear_2426_26133)" stroke-width="12"/>
<rect x="886" y="3155.1" width="1164.63" height="131.005" transform="rotate(-45.8118 886 3155.1)" fill="url(#paint2_linear_2426_26133)"/>
<g filter="url(#filter1_d_2426_26133)">
<rect x="886" y="3155.1" width="130.949" height="131.005" transform="rotate(-45.8118 886 3155.1)" fill="#F05025"/>
</g>
<rect x="1489.07" y="2372.42" width="1149.19" height="131.005" transform="rotate(-142.993 1489.07 2372.42)" fill="url(#paint3_linear_2426_26133)"/>
<rect x="-159" y="581.426" width="541.411" height="131.993" transform="rotate(-40.5015 -159 581.426)" fill="url(#paint4_linear_2426_26133)"/>
<rect x="394.875" y="1317.3" width="763.75" height="131.993" transform="rotate(-144.254 394.875 1317.3)" fill="url(#paint5_linear_2426_26133)"/>
<rect x="861.004" y="87.7891" width="617.997" height="131.005" transform="rotate(139.499 861.004 87.7891)" fill="url(#paint6_linear_2426_26133)"/>
<g filter="url(#filter2_d_2426_26133)">
<rect x="152.316" y="315.523" width="131.993" height="131.993" transform="rotate(-40.5015 152.316 315.523)" fill="#F05025"/>
</g>
<g filter="url(#filter3_d_2426_26133)">
<rect x="405.613" y="304.461" width="131.005" height="131.005" transform="rotate(49.4929 405.613 304.461)" fill="#F05025"/>
</g>
<line x1="-185.731" y1="6295.32" x2="1481.04" y2="6295.32" stroke="#F05025" stroke-width="1.00019"/>
<line x1="-185.731" y1="6303.32" x2="1481.04" y2="6303.32" stroke="#F05025" stroke-width="1.00019"/>
<line x1="-185.731" y1="6311.32" x2="1481.04" y2="6311.32" stroke="#F05025" stroke-width="1.00019"/>
<line x1="-185.731" y1="6319.32" x2="1481.04" y2="6319.32" stroke="#F05025" stroke-width="1.00019"/>
<line x1="-185.731" y1="6329.32" x2="1481.04" y2="6329.32" stroke="#F05025" stroke-width="1.00019"/>
<line x1="-185.731" y1="6340.32" x2="1481.04" y2="6340.32" stroke="#F05025" stroke-width="1.00019"/>
<line x1="-185.731" y1="6352.33" x2="1481.04" y2="6352.33" stroke="#F05025" stroke-width="1.00019"/>
<line x1="-185.731" y1="6365.33" x2="1481.04" y2="6365.33" stroke="#F05025" stroke-width="1.00019"/>
<line x1="-185.731" y1="6380.33" x2="1481.04" y2="6380.33" stroke="#F05025" stroke-width="1.00019"/>
<line x1="-185.731" y1="6395.34" x2="1481.04" y2="6395.34" stroke="#F05025" stroke-width="1.00019"/>
<line x1="-185.731" y1="6413.34" x2="1481.04" y2="6413.34" stroke="#F05025" stroke-width="1.00019"/>
<line x1="-185.731" y1="6432.34" x2="1481.04" y2="6432.34" stroke="#F05025" stroke-width="1.00019"/>
<line x1="-185.731" y1="6458.35" x2="1481.04" y2="6458.35" stroke="#F05025" stroke-width="1.00019"/>
<line x1="-185.731" y1="6483.35" x2="1481.04" y2="6483.35" stroke="#F05025" stroke-width="1.00019"/>
<line x1="-185.731" y1="6512.36" x2="1481.04" y2="6512.36" stroke="#F05025" stroke-width="1.00019"/>
<line x1="-185.731" y1="6548.36" x2="1481.04" y2="6548.36" stroke="#F05025" stroke-width="1.00019"/>
<line x1="-185.731" y1="6588.59" x2="1481.04" y2="6588.59" stroke="#F05025" stroke-width="1.00019"/>
<path d="M526.06 6295.32L233.405 6593.2L233.405 7829.53" stroke="url(#paint7_linear_2426_26133)" stroke-width="1.00019"/>
<path d="M457.354 6295.41L58.5191 6590.54L58.5192 7828.12" stroke="url(#paint8_linear_2426_26133)" stroke-width="1.00019"/>
<path d="M386.684 6295.32L-121.492 6589.37" stroke="#F05025" stroke-width="1.00019"/>
<path d="M320.149 6295.32L-188.6 6537.86" stroke="#F05025" stroke-width="1.00019"/>
<path d="M249.602 6295.32L-185.158 6473.85" stroke="#F05025" stroke-width="1.00019"/>
<path d="M181.348 6295.32L-185.732 6427.84" stroke="#F05025" stroke-width="1.00019"/>
<path d="M110.226 6295.32L-185.732 6386.83" stroke="#F05025" stroke-width="1.00019"/>
<path d="M40.252 6295.32L-185.731 6363.83" stroke="#F05025" stroke-width="1.00019"/>
<path d="M596.034 6295.32L407.332 6591.37L407.332 7829.53" stroke="url(#paint9_linear_2426_26133)" stroke-width="1.00019"/>
<path d="M666.582 6295.31L582.841 6592.87L582.841 7829.53" stroke="url(#paint10_linear_2426_26133)" stroke-width="1.00019"/>
<path d="M735.427 6295.31L760.073 6591.87C760.073 7582.8 760.073 7829.86 760.073 7829.53" stroke="url(#paint11_linear_2426_26133)" stroke-width="1.00019"/>
<path d="M805.873 6295.32L937.303 6591.87L937.303 7843.07" stroke="url(#paint12_linear_2426_26133)" stroke-width="1.00019"/>
<path d="M874.785 6295.82L1112.24 6592.37L1112.24 7829.03" stroke="url(#paint13_linear_2426_26133)" stroke-width="1.00019"/>
<path d="M947.285 6295.82L1288.32 6592.37L1288.32 7832.04" stroke="url(#paint14_linear_2426_26133)" stroke-width="1.00019"/>
<path d="M1016.45 6295.31L1463.26 6591.87" stroke="#F05025" stroke-width="1.00019"/>
<path d="M1085.28 6295.31L1481.04 6506.86" stroke="#F05025" stroke-width="1.00019"/>
<path d="M1154.11 6296.32L1481.04 6441.34" stroke="#F05025" stroke-width="1.00019"/>
<path d="M1226.38 6295.21L1481.04 6394.84" stroke="#F05025" stroke-width="1.00019"/>
<path d="M1292.91 6295.21L1480.47 6362.83" stroke="#F05025" stroke-width="1.00019"/>
<path d="M1364.03 6295.21L1481.04 6334.32" stroke="#F05025" stroke-width="1.00019"/>
<path d="M1432.86 6295.2L1481.04 6310.32" stroke="#F05025" stroke-width="1.00019"/>
<g filter="url(#filter4_d_2426_26133)">
<rect x="700.469" y="1613.84" width="131.005" height="131.005" transform="rotate(127.002 700.469 1613.84)" fill="#26449C"/>
</g>
<rect x="1382" y="4625" width="138" height="65" fill="#171312"/>
</g>
<defs>
<filter id="filter0_f_2426_26133" x="88" y="97" width="456.386" height="456.387" filterUnits="userSpaceOnUse" color-interpolation-filters="sRGB">
<feFlood flood-opacity="0" result="BackgroundImageFix"/>
<feBlend mode="normal" in="SourceGraphic" in2="BackgroundImageFix" result="shape"/>
<feGaussianBlur stdDeviation="13" result="effect1_foregroundBlur_2426_26133"/>
</filter>
<filter id="filter1_d_2426_26133" x="877" y="3029.2" width="241.211" height="241.211" filterUnits="userSpaceOnUse" color-interpolation-filters="sRGB">
<feFlood flood-opacity="0" result="BackgroundImageFix"/>
<feColorMatrix in="SourceAlpha" type="matrix" values="0 0 0 0 0 0 0 0 0 0 0 0 0 0 0 0 0 0 127 0" result="hardAlpha"/>
<feOffset dx="19" dy="-4"/>
<feGaussianBlur stdDeviation="14"/>
<feComposite in2="hardAlpha" operator="out"/>
<feColorMatrix type="matrix" values="0 0 0 0 0 0 0 0 0 0 0 0 0 0 0 0 0 0 0.63 0"/>
<feBlend mode="normal" in2="BackgroundImageFix" result="effect1_dropShadow_2426_26133"/>
<feBlend mode="normal" in="SourceGraphic" in2="effect1_dropShadow_2426_26133" result="shape"/>
</filter>
<filter id="filter2_d_2426_26133" x="121.316" y="216.797" width="238.092" height="238.094" filterUnits="userSpaceOnUse" color-interpolation-filters="sRGB">
<feFlood flood-opacity="0" result="BackgroundImageFix"/>
<feColorMatrix in="SourceAlpha" type="matrix" values="0 0 0 0 0 0 0 0 0 0 0 0 0 0 0 0 0 0 127 0" result="hardAlpha"/>
<feOffset dx="-5" dy="13"/>
<feGaussianBlur stdDeviation="13"/>
<feComposite in2="hardAlpha" operator="out"/>
<feColorMatrix type="matrix" values="0 0 0 0 0 0 0 0 0 0 0 0 0 0 0 0 0 0 0.73 0"/>
<feBlend mode="normal" in2="BackgroundImageFix" result="effect1_dropShadow_2426_26133"/>
<feBlend mode="normal" in="SourceGraphic" in2="effect1_dropShadow_2426_26133" result="shape"/>
</filter>
<filter id="filter3_d_2426_26133" x="291.007" y="274.461" width="250.7" height="250.699" filterUnits="userSpaceOnUse" color-interpolation-filters="sRGB">
<feFlood flood-opacity="0" result="BackgroundImageFix"/>
<feColorMatrix in="SourceAlpha" type="matrix" values="0 0 0 0 0 0 0 0 0 0 0 0 0 0 0 0 0 0 127 0" result="hardAlpha"/>
<feOffset dx="18" dy="3"/>
<feGaussianBlur stdDeviation="16.5"/>
<feComposite in2="hardAlpha" operator="out"/>
<feColorMatrix type="matrix" values="0 0 0 0 0 0 0 0 0 0 0 0 0 0 0 0 0 0 0.73 0"/>
<feBlend mode="normal" in2="BackgroundImageFix" result="effect1_dropShadow_2426_26133"/>
<feBlend mode="normal" in="SourceGraphic" in2="effect1_dropShadow_2426_26133" result="shape"/>
</filter>
<filter id="filter4_d_2426_26133" x="502.002" y="1505" width="249.467" height="249.469" filterUnits="userSpaceOnUse" color-interpolation-filters="sRGB">
<feFlood flood-opacity="0" result="BackgroundImageFix"/>
<feColorMatrix in="SourceAlpha" type="matrix" values="0 0 0 0 0 0 0 0 0 0 0 0 0 0 0 0 0 0 127 0" result="hardAlpha"/>
<feOffset dx="18" dy="3"/>
<feGaussianBlur stdDeviation="16.5"/>
<feComposite in2="hardAlpha" operator="out"/>
<feColorMatrix type="matrix" values="0 0 0 0 0 0 0 0 0 0 0 0 0 0 0 0 0 0 0.73 0"/>
<feBlend mode="normal" in2="BackgroundImageFix" result="effect1_dropShadow_2426_26133"/>
<feBlend mode="normal" in="SourceGraphic" in2="effect1_dropShadow_2426_26133" result="shape"/>
</filter>
<linearGradient id="paint0_linear_2426_26133" x1="184.468" y1="154.319" x2="455.287" y2="484.552" gradientUnits="userSpaceOnUse">
<stop stop-color="#F05025"/>
<stop offset="0.947187" stop-color="white" stop-opacity="0"/>
</linearGradient>
<linearGradient id="paint1_linear_2426_26133" x1="184.468" y1="154.319" x2="465.553" y2="492.434" gradientUnits="userSpaceOnUse">
<stop stop-color="white"/>
<stop offset="0.947187" stop-color="white" stop-opacity="0"/>
</linearGradient>
<linearGradient id="paint2_linear_2426_26133" x1="1996.41" y1="3221.25" x2="929.425" y2="3179.5" gradientUnits="userSpaceOnUse">
<stop stop-color="#26449C"/>
<stop offset="0.845439" stop-color="#F05025"/>
</linearGradient>
<linearGradient id="paint3_linear_2426_26133" x1="2584.75" y1="2438.56" x2="1531.87" y2="2397.92" gradientUnits="userSpaceOnUse">
<stop stop-color="#26449C"/>
<stop offset="0.845439" stop-color="#F05025"/>
</linearGradient>
<linearGradient id="paint4_linear_2426_26133" x1="-118.715" y1="652.413" x2="230.844" y2="641.771" gradientUnits="userSpaceOnUse">
<stop stop-color="#26449C"/>
<stop offset="1" stop-color="#F05025"/>
</linearGradient>
<linearGradient id="paint5_linear_2426_26133" x1="451.703" y1="1388.29" x2="944.363" y2="1367.13" gradientUnits="userSpaceOnUse">
<stop stop-color="#26449C"/>
<stop offset="1" stop-color="#F05025"/>
</linearGradient>
<linearGradient id="paint6_linear_2426_26133" x1="930.842" y1="153.108" x2="1354.15" y2="161.737" gradientUnits="userSpaceOnUse">
<stop stop-color="#26449C"/>
<stop offset="1" stop-color="#F05025"/>
</linearGradient>
<linearGradient id="paint7_linear_2426_26133" x1="730.333" y1="7324.89" x2="111.897" y2="6715.91" gradientUnits="userSpaceOnUse">
<stop stop-color="#F05025" stop-opacity="0.13"/>
<stop offset="1" stop-color="#F05025"/>
</linearGradient>
<linearGradient id="paint8_linear_2426_26133" x1="577.551" y1="7301.03" x2="-41.1649" y2="6691.77" gradientUnits="userSpaceOnUse">
<stop stop-color="#F05025" stop-opacity="0.13"/>
<stop offset="1" stop-color="#F05025"/>
</linearGradient>
<linearGradient id="paint9_linear_2426_26133" x1="882.204" y1="7347.29" x2="210.991" y2="6686.34" gradientUnits="userSpaceOnUse">
<stop stop-color="#F05025" stop-opacity="0.13"/>
<stop offset="1" stop-color="#F05025"/>
</linearGradient>
<linearGradient id="paint10_linear_2426_26133" x1="1035.44" y1="7369.9" x2="310.941" y2="6656.48" gradientUnits="userSpaceOnUse">
<stop stop-color="#F05025" stop-opacity="0.13"/>
<stop offset="1" stop-color="#F05025"/>
</linearGradient>
<linearGradient id="paint11_linear_2426_26133" x1="1189.68" y1="7393.26" x2="410.148" y2="6625.64" gradientUnits="userSpaceOnUse">
<stop stop-color="#F05025" stop-opacity="0.13"/>
<stop offset="1" stop-color="#F05025"/>
</linearGradient>
<linearGradient id="paint12_linear_2426_26133" x1="1348.09" y1="7425.91" x2="507.575" y2="6598.25" gradientUnits="userSpaceOnUse">
<stop stop-color="#F05025" stop-opacity="0.13"/>
<stop offset="1" stop-color="#F05025"/>
</linearGradient>
<linearGradient id="paint13_linear_2426_26133" x1="1496.41" y1="7438.9" x2="609.335" y2="6565.39" gradientUnits="userSpaceOnUse">
<stop stop-color="#F05025" stop-opacity="0.13"/>
<stop offset="1" stop-color="#F05025"/>
</linearGradient>
<linearGradient id="paint14_linear_2426_26133" x1="1651.37" y1="7463.36" x2="710.199" y2="6536.58" gradientUnits="userSpaceOnUse">
<stop stop-color="#F05025" stop-opacity="0.13"/>
<stop offset="1" stop-color="#F05025"/>
</linearGradient>
<clipPath id="clip0_2426_26133">
<rect width="1440" height="6592" fill="white"/>
</clipPath>
</defs>
</svg>
