<svg width="1436" height="504" viewBox="0 0 1436 504" fill="none" xmlns="http://www.w3.org/2000/svg">
<line x1="-111.14" y1="116.045" x2="1551" y2="116.045" stroke="#F05025" stroke-width="0.997417"/>
<line x1="-111.14" y1="124.024" x2="1551" y2="124.024" stroke="#F05025" stroke-width="0.997417"/>
<line x1="-111.14" y1="132.003" x2="1551" y2="132.003" stroke="#F05025" stroke-width="0.997417"/>
<line x1="-111.14" y1="139.983" x2="1551" y2="139.983" stroke="#F05025" stroke-width="0.997417"/>
<line x1="-111.14" y1="149.957" x2="1551" y2="149.957" stroke="#F05025" stroke-width="0.997417"/>
<line x1="-111.14" y1="160.928" x2="1551" y2="160.928" stroke="#F05025" stroke-width="0.997417"/>
<line x1="-111.14" y1="172.897" x2="1551" y2="172.897" stroke="#F05025" stroke-width="0.997417"/>
<line x1="-111.14" y1="185.864" x2="1551" y2="185.864" stroke="#F05025" stroke-width="0.997417"/>
<line x1="-111.14" y1="200.825" x2="1551" y2="200.825" stroke="#F05025" stroke-width="0.997417"/>
<line x1="-111.14" y1="215.786" x2="1551" y2="215.786" stroke="#F05025" stroke-width="0.997417"/>
<line x1="-111.14" y1="233.74" x2="1551" y2="233.74" stroke="#F05025" stroke-width="0.997417"/>
<line x1="-111.14" y1="252.691" x2="1551" y2="252.691" stroke="#F05025" stroke-width="0.997417"/>
<line x1="-111.14" y1="278.624" x2="1551" y2="278.624" stroke="#F05025" stroke-width="0.997417"/>
<line x1="-111.14" y1="303.559" x2="1551" y2="303.559" stroke="#F05025" stroke-width="0.997417"/>
<line x1="-111.14" y1="332.484" x2="1551" y2="332.484" stroke="#F05025" stroke-width="0.997417"/>
<line x1="-111.14" y1="368.391" x2="1551" y2="368.391" stroke="#F05025" stroke-width="0.997417"/>
<path d="M598.673 116.045L306.831 413.101" stroke="#F05025" stroke-width="0.997417"/>
<path d="M530.036 116.045L133.09 409.784" stroke="#F05025" stroke-width="0.997417"/>
<path d="M459.684 116.045L-47.0797 409.285" stroke="#F05025" stroke-width="0.997417"/>
<path d="M393.336 116.045L-114 357.918" stroke="#F05025" stroke-width="0.997417"/>
<path d="M322.984 116.045L-110.568 294.084" stroke="#F05025" stroke-width="0.997417"/>
<path d="M254.92 116.045L-111.14 248.202" stroke="#F05025" stroke-width="0.997417"/>
<path d="M183.995 116.045L-111.14 207.308" stroke="#F05025" stroke-width="0.997417"/>
<path d="M114.215 116.045L-111.14 184.368" stroke="#F05025" stroke-width="0.997417"/>
<path d="M42.1473 116.045L-111.712 160.928" stroke="#F05025" stroke-width="0.997417"/>
<path d="M668.453 116.045L480.275 411.28" stroke="#F05025" stroke-width="0.997417"/>
<path d="M738.805 116.045L655.297 412.776" stroke="#F05025" stroke-width="0.997417"/>
<path d="M807.458 116.044L832.036 411.779" stroke="#F05025" stroke-width="0.997417"/>
<path d="M877.709 116.044L1008.77 411.779" stroke="#F05025" stroke-width="0.997417"/>
<path d="M946.429 116.543L1183.22 412.277" stroke="#F05025" stroke-width="0.997417"/>
<path d="M1018.73 116.543L1358.82 412.277" stroke="#F05025" stroke-width="0.997417"/>
<path d="M1087.71 116.045L1533.27 411.779" stroke="#F05025" stroke-width="0.997417"/>
<path d="M1156.34 116.045L1551 326.998" stroke="#F05025" stroke-width="0.997417"/>
<path d="M1224.98 117.042L1551 261.667" stroke="#F05025" stroke-width="0.997417"/>
<path d="M1297.05 115.935L1551 215.288" stroke="#F05025" stroke-width="0.997417"/>
<path d="M1363.39 115.935L1550.43 183.37" stroke="#F05025" stroke-width="0.997417"/>
<path d="M1434.32 115.935L1551 154.944" stroke="#F05025" stroke-width="0.997417"/>
</svg>
