<svg width="27" height="27" viewBox="0 0 27 27" fill="none" xmlns="http://www.w3.org/2000/svg">
<g clip-path="url(#clip0_1971_19928)">
<path d="M13.501 0.763672C9.9731 0.763672 9.52948 0.779922 8.14335 0.841672C6.75723 0.906672 5.8131 1.12442 4.98598 1.44617C4.11838 1.7725 3.33253 2.28439 2.68335 2.94605C2.0221 3.59555 1.51028 4.38131 1.18348 5.24867C0.861727 6.07417 0.642352 7.01992 0.578977 8.40117C0.517227 9.79055 0.500977 10.2325 0.500977 13.7653C0.500977 17.2948 0.517227 17.7368 0.578977 19.1229C0.643977 20.5074 0.861727 21.4515 1.18348 22.2787C1.5166 23.1334 1.96023 23.8582 2.68335 24.5813C3.40485 25.3044 4.1296 25.7497 4.98435 26.0812C5.8131 26.4029 6.7556 26.6223 8.1401 26.6857C9.52785 26.7474 9.96985 26.7637 13.501 26.7637C17.0321 26.7637 17.4725 26.7474 18.8602 26.6857C20.2431 26.6207 21.1905 26.4029 22.0176 26.0812C22.8846 25.7547 23.6699 25.2428 24.3186 24.5813C25.0417 23.8582 25.4854 23.1334 25.8185 22.2787C26.1386 21.4515 26.358 20.5074 26.423 19.1229C26.4847 17.7368 26.501 17.2948 26.501 13.7637C26.501 10.2325 26.4847 9.79055 26.423 8.4028C26.358 7.01992 26.1386 6.07417 25.8185 5.24867C25.4917 4.38129 24.9799 3.59552 24.3186 2.94605C23.6696 2.28414 22.8837 1.77222 22.016 1.44617C21.1872 1.12442 20.2415 0.905047 18.8586 0.841672C17.4709 0.779922 17.0305 0.763672 13.4977 0.763672H13.5026H13.501ZM12.3359 3.10692H13.5026C16.9736 3.10692 17.3847 3.1183 18.7546 3.18167C20.0221 3.23855 20.7111 3.45142 21.1694 3.62855C21.7755 3.86417 22.2094 4.14692 22.6644 4.60192C23.1194 5.05692 23.4005 5.48917 23.6361 6.09692C23.8149 6.55355 24.0261 7.24255 24.083 8.51005C24.1464 9.87992 24.1594 10.291 24.1594 13.7604C24.1594 17.2298 24.1464 17.6425 24.083 19.0124C24.0261 20.2799 23.8132 20.9673 23.6361 21.4255C23.4277 21.99 23.095 22.5004 22.6627 22.9189C22.2077 23.3739 21.7755 23.655 21.1677 23.8907C20.7127 24.0694 20.0237 24.2807 18.7546 24.3392C17.3847 24.4009 16.9736 24.4155 13.5026 24.4155C10.0316 24.4155 9.61885 24.4009 8.24898 24.3392C6.98148 24.2807 6.2941 24.0694 5.83585 23.8907C5.27116 23.6825 4.76031 23.3505 4.34085 22.9189C3.9082 22.4997 3.57503 21.9889 3.36585 21.4239C3.18873 20.9673 2.97585 20.2783 2.91898 19.0108C2.85723 17.6409 2.84423 17.2298 2.84423 13.7572C2.84423 10.2862 2.85723 9.87667 2.91898 8.5068C2.97748 7.2393 3.18873 6.5503 3.36748 6.09205C3.6031 5.48592 3.88585 5.05205 4.34085 4.59705C4.79585 4.14205 5.2281 3.86092 5.83585 3.6253C6.2941 3.44655 6.98148 3.2353 8.24898 3.1768C9.44823 3.12155 9.91298 3.1053 12.3359 3.10367V3.10692ZM20.4414 5.26492C20.2365 5.26492 20.0336 5.30527 19.8444 5.38367C19.6551 5.46207 19.4831 5.57698 19.3383 5.72184C19.1934 5.86669 19.0785 6.03867 19.0001 6.22794C18.9217 6.4172 18.8814 6.62006 18.8814 6.82492C18.8814 7.02978 18.9217 7.23264 19.0001 7.42191C19.0785 7.61118 19.1934 7.78315 19.3383 7.92801C19.4831 8.07287 19.6551 8.18778 19.8444 8.26617C20.0336 8.34457 20.2365 8.38492 20.4414 8.38492C20.8551 8.38492 21.2519 8.22057 21.5444 7.92801C21.837 7.63545 22.0014 7.23866 22.0014 6.82492C22.0014 6.41118 21.837 6.01439 21.5444 5.72184C21.2519 5.42928 20.8551 5.26492 20.4414 5.26492ZM13.5026 7.08817C12.6171 7.07436 11.7377 7.23684 10.9156 7.56615C10.0935 7.89547 9.34506 8.38504 8.71397 9.00636C8.08288 9.62768 7.58169 10.3683 7.23959 11.1852C6.89749 12.0021 6.72132 12.8789 6.72132 13.7645C6.72132 14.6501 6.89749 15.5269 7.23959 16.3438C7.58169 17.1606 8.08288 17.9013 8.71397 18.5226C9.34506 19.1439 10.0935 19.6335 10.9156 19.9628C11.7377 20.2921 12.6171 20.4546 13.5026 20.4408C15.2552 20.4135 16.9268 19.698 18.1566 18.449C19.3863 17.1999 20.0756 15.5173 20.0756 13.7645C20.0756 12.0116 19.3863 10.3291 18.1566 9.08002C16.9268 7.83094 15.2552 7.11552 13.5026 7.08817ZM13.5026 9.4298C14.652 9.4298 15.7544 9.8864 16.5671 10.6992C17.3799 11.5119 17.8365 12.6143 17.8365 13.7637C17.8365 14.9131 17.3799 16.0154 16.5671 16.8282C15.7544 17.6409 14.652 18.0975 13.5026 18.0975C12.3532 18.0975 11.2508 17.6409 10.4381 16.8282C9.62533 16.0154 9.16873 14.9131 9.16873 13.7637C9.16873 12.6143 9.62533 11.5119 10.4381 10.6992C11.2508 9.8864 12.3532 9.4298 13.5026 9.4298Z" fill="#F5F2F2"/>
</g>
<defs>
<clipPath id="clip0_1971_19928">
<rect width="26" height="26" fill="white" transform="translate(0.500977 0.763672)"/>
</clipPath>
</defs>
</svg>
