<svg width="22" height="22" viewBox="0 0 22 22" fill="none" xmlns="http://www.w3.org/2000/svg">
<g id="phone">
<path id="Vector" d="M19.8781 15.2861V17.9968C19.8791 18.2484 19.8276 18.4975 19.7268 18.7281C19.626 18.9587 19.4781 19.1656 19.2927 19.3357C19.1072 19.5059 18.8883 19.6354 18.6499 19.716C18.4115 19.7966 18.1589 19.8266 17.9083 19.8039C15.1279 19.5018 12.4571 18.5517 10.1105 17.03C7.92732 15.6427 6.07636 13.7917 4.68907 11.6085C3.16202 9.25129 2.2117 6.5675 1.91511 3.77456C1.89253 3.52469 1.92223 3.27286 2.0023 3.0351C2.08238 2.79734 2.21109 2.57886 2.38024 2.39356C2.54938 2.20827 2.75525 2.06022 2.98475 1.95885C3.21424 1.85748 3.46233 1.80501 3.71322 1.80478H6.42393C6.86244 1.80046 7.28756 1.95574 7.62004 2.24168C7.95253 2.52762 8.1697 2.9247 8.23107 3.35892C8.34549 4.22641 8.55767 5.07817 8.86357 5.89795C8.98514 6.22136 9.01145 6.57284 8.93939 6.91075C8.86732 7.24865 8.6999 7.55882 8.45697 7.80449L7.30943 8.95202C8.59571 11.2142 10.4687 13.0872 12.7309 14.3735L13.8784 13.2259C14.1241 12.983 14.4342 12.8156 14.7721 12.7435C15.11 12.6714 15.4615 12.6977 15.7849 12.8193C16.6047 13.1252 17.4565 13.3374 18.324 13.4518C18.7629 13.5137 19.1637 13.7348 19.4503 14.073C19.7368 14.4112 19.8891 14.8429 19.8781 15.2861Z" fill="white"/>
</g>
</svg>
