<svg width="20" height="22" viewBox="0 0 20 22" fill="none" xmlns="http://www.w3.org/2000/svg">
<path d="M16.5 22C15.5833 22 14.8042 21.6792 14.1625 21.0375C13.5208 20.3958 13.2 19.6167 13.2 18.7C13.2 18.5717 13.2092 18.4388 13.2275 18.3013C13.2458 18.1638 13.2733 18.04 13.31 17.93L5.555 13.42C5.24333 13.695 4.895 13.9104 4.51 14.0663C4.125 14.2221 3.72167 14.3 3.3 14.3C2.38333 14.3 1.60417 13.9792 0.9625 13.3375C0.320833 12.6958 0 11.9167 0 11C0 10.0833 0.320833 9.30417 0.9625 8.6625C1.60417 8.02083 2.38333 7.7 3.3 7.7C3.72167 7.7 4.125 7.77792 4.51 7.93375C4.895 8.08958 5.24333 8.305 5.555 8.58L13.31 4.07C13.2733 3.96 13.2458 3.83625 13.2275 3.69875C13.2092 3.56125 13.2 3.42833 13.2 3.3C13.2 2.38333 13.5208 1.60417 14.1625 0.9625C14.8042 0.320833 15.5833 0 16.5 0C17.4167 0 18.1958 0.320833 18.8375 0.9625C19.4792 1.60417 19.8 2.38333 19.8 3.3C19.8 4.21667 19.4792 4.99583 18.8375 5.6375C18.1958 6.27917 17.4167 6.6 16.5 6.6C16.0783 6.6 15.675 6.52208 15.29 6.36625C14.905 6.21042 14.5567 5.995 14.245 5.72L6.49 10.23C6.52667 10.34 6.55417 10.4638 6.5725 10.6013C6.59083 10.7388 6.6 10.8717 6.6 11C6.6 11.1283 6.59083 11.2613 6.5725 11.3988C6.55417 11.5363 6.52667 11.66 6.49 11.77L14.245 16.28C14.5567 16.005 14.905 15.7896 15.29 15.6338C15.675 15.4779 16.0783 15.4 16.5 15.4C17.4167 15.4 18.1958 15.7208 18.8375 16.3625C19.4792 17.0042 19.8 17.7833 19.8 18.7C19.8 19.6167 19.4792 20.3958 18.8375 21.0375C18.1958 21.6792 17.4167 22 16.5 22ZM16.5 4.4C16.8117 4.4 17.0729 4.29458 17.2837 4.08375C17.4946 3.87292 17.6 3.61167 17.6 3.3C17.6 2.98833 17.4946 2.72708 17.2837 2.51625C17.0729 2.30542 16.8117 2.2 16.5 2.2C16.1883 2.2 15.9271 2.30542 15.7162 2.51625C15.5054 2.72708 15.4 2.98833 15.4 3.3C15.4 3.61167 15.5054 3.87292 15.7162 4.08375C15.9271 4.29458 16.1883 4.4 16.5 4.4ZM3.3 12.1C3.61167 12.1 3.87292 11.9946 4.08375 11.7838C4.29458 11.5729 4.4 11.3117 4.4 11C4.4 10.6883 4.29458 10.4271 4.08375 10.2163C3.87292 10.0054 3.61167 9.9 3.3 9.9C2.98833 9.9 2.72708 10.0054 2.51625 10.2163C2.30542 10.4271 2.2 10.6883 2.2 11C2.2 11.3117 2.30542 11.5729 2.51625 11.7838C2.72708 11.9946 2.98833 12.1 3.3 12.1ZM16.5 19.8C16.8117 19.8 17.0729 19.6946 17.2837 19.4838C17.4946 19.2729 17.6 19.0117 17.6 18.7C17.6 18.3883 17.4946 18.1271 17.2837 17.9163C17.0729 17.7054 16.8117 17.6 16.5 17.6C16.1883 17.6 15.9271 17.7054 15.7162 17.9163C15.5054 18.1271 15.4 18.3883 15.4 18.7C15.4 19.0117 15.5054 19.2729 15.7162 19.4838C15.9271 19.6946 16.1883 19.8 16.5 19.8Z" fill="white"/>
</svg>
