<svg width="29" height="30" viewBox="0 0 29 30" fill="none" xmlns="http://www.w3.org/2000/svg">
<path d="M1.71133 29.5137C1.45694 29.5137 1.21523 29.4058 1.03716 29.2171C0.795484 28.9609 0.69379 28.5834 0.782827 28.2329L2.38551 21.8828C1.31706 19.7796 0.757363 17.4067 0.757363 15.0069C0.757363 7.01205 6.88821 0.513672 14.4309 0.513672C21.9736 0.513672 28.1045 7.01205 28.1045 15.0069C28.1045 23.0018 21.9736 29.5002 14.4309 29.5002C12.1286 29.5002 9.87736 28.8935 7.86766 27.734L1.96574 29.4732C1.8767 29.5002 1.80037 29.5137 1.71133 29.5137ZM7.99482 25.6443C8.16017 25.6443 8.32554 25.6984 8.47818 25.7793C10.2716 26.8983 12.3322 27.4914 14.4309 27.4914C20.9179 27.4914 26.1965 21.8963 26.1965 15.0204C26.1965 8.14457 20.9179 2.54949 14.4309 2.54949C7.94394 2.54949 2.6653 8.14457 2.6653 15.0204C2.6653 17.218 3.21223 19.3616 4.24252 21.2491C4.36972 21.4783 4.4079 21.7615 4.34431 22.0176L3.07234 27.0599L7.75315 25.6847C7.82947 25.6578 7.9185 25.6443 7.99482 25.6443Z" fill="#F5F2F2"/>
<path d="M15.6147 21.8657L15.6134 21.8651C14.8405 21.514 14.0645 21.0444 13.3107 20.455L13.3099 20.4544C12.5614 19.8726 11.8259 19.2118 11.1533 18.499C10.4781 17.77 9.85434 17.0029 9.30646 16.2112C8.74636 15.3798 8.30254 14.5679 7.9838 13.7753C7.64321 12.9243 7.47656 12.0953 7.47656 11.313C7.47656 10.7633 7.5707 10.2407 7.7463 9.75643C7.92931 9.25974 8.22825 8.80656 8.62564 8.41013L8.6257 8.41019L8.63152 8.40412C9.36345 7.64043 10.3602 7.41354 11.1037 7.79139L11.1036 7.79158L11.1151 7.79694C11.3615 7.91183 11.5758 8.10261 11.7449 8.37132L11.7447 8.37141L11.751 8.38066L13.2263 10.5782L13.2262 10.5783L13.2315 10.5858C13.3626 10.771 13.4635 10.9712 13.5437 11.1774C13.6352 11.4202 13.6843 11.6428 13.6843 11.8388C13.6843 12.1262 13.6111 12.412 13.4668 12.6632L13.4657 12.6652C13.3633 12.8461 13.2152 13.0632 13.0232 13.2667L13.023 13.2665L13.0139 13.2769L12.8485 13.4657L12.6537 13.688L12.8245 13.9294C12.8353 13.9446 12.8469 13.9612 12.8592 13.9789C12.9271 14.0762 13.0196 14.2088 13.1494 14.3592C13.416 14.6821 13.7145 15.0399 14.0408 15.3857L14.0407 15.3858L14.0461 15.3912L14.051 15.3962C14.3656 15.7163 14.6908 16.0473 15.0181 16.3387L15.0193 16.3397C15.1694 16.4724 15.3154 16.5974 15.4421 16.6814L15.7054 16.8558L15.9221 16.626L16.0999 16.4373C16.312 16.2126 16.5091 16.0543 16.6898 15.9586L16.7074 15.9493L16.7239 15.9381C17.0288 15.7324 17.5392 15.6682 18.0017 15.8751L18.0089 15.8784L18.0163 15.8813C18.1802 15.9465 18.3547 16.0484 18.5533 16.197C18.5534 16.1971 18.5534 16.1971 18.5535 16.1971L20.6776 17.7879L20.6776 17.7879L20.6799 17.7896C20.9125 17.9611 21.101 18.2007 21.2299 18.481C21.3383 18.7719 21.3796 19.0206 21.3796 19.2809C21.3796 19.627 21.304 19.9654 21.1587 20.2986C21.0062 20.621 20.8327 20.9022 20.6272 21.1571C20.2549 21.5875 19.8294 21.9024 19.3747 22.1073C18.9183 22.3129 18.4243 22.4112 17.9132 22.4112C17.1864 22.4112 16.4255 22.2376 15.6147 21.8657ZM10.5615 8.97091L10.4642 8.90214H10.345C10.2886 8.90214 10.1542 8.903 9.98022 8.96795C9.80946 9.03169 9.62039 9.14933 9.42719 9.35311C9.15234 9.62997 8.96003 9.92713 8.82721 10.2556C8.69083 10.5929 8.6345 10.9662 8.6345 11.3265C8.6345 11.949 8.7743 12.6025 9.04208 13.2837L9.04245 13.2847C9.32201 13.9902 9.73086 14.7289 10.2253 15.4598L10.2252 15.4599L10.2278 15.4636C10.7322 16.1901 11.3035 16.9199 11.9422 17.5968L11.9422 17.5968L11.9448 17.5996C12.5786 18.2576 13.2527 18.8763 13.9548 19.4275L13.9567 19.4291C14.6403 19.9585 15.3389 20.3779 16.0395 20.7001C17.0532 21.1667 18.0639 21.3166 18.9279 20.9325C19.2494 20.7953 19.5194 20.5652 19.7632 20.3067L19.7699 20.2996L19.7763 20.2921C19.9113 20.1331 20.0213 19.9674 20.1142 19.7542L20.1143 19.7542L20.118 19.745C20.1694 19.618 20.2089 19.4619 20.2089 19.3079V19.3069C20.2089 19.2868 20.2089 19.24 20.1966 19.1796C20.1848 19.1211 20.1642 19.0619 20.1349 18.9996L20.0944 18.9138L20.018 18.8576L17.8958 17.2951C17.7937 17.218 17.6699 17.1389 17.5421 17.0937L17.3869 17.0389L17.2415 17.116C17.1589 17.1598 17.0487 17.2241 16.8774 17.4057L16.394 17.918C16.1391 18.1882 15.7236 18.2717 15.3865 18.1524L15.1844 18.0572C14.9267 17.9133 14.6231 17.6918 14.2739 17.3727L14.2732 17.372C13.9257 17.0563 13.5893 16.7263 13.2255 16.354C12.8748 15.969 12.5637 15.6126 12.2661 15.2447C11.951 14.8464 11.7394 14.5343 11.601 14.2813L11.4773 13.9713C11.455 13.8843 11.4451 13.7799 11.4451 13.6723C11.4451 13.3847 11.5399 13.1382 11.7168 12.94L12.1968 12.4179C12.3495 12.2559 12.429 12.1426 12.4778 12.0392L12.5478 11.8908L12.4863 11.7386C12.4326 11.606 12.363 11.498 12.2973 11.4004C12.2972 11.4003 12.2971 11.4001 12.297 11.4L10.8094 9.1765L10.7708 9.11884L10.7141 9.0788L10.5615 8.97091Z" fill="#F5F2F2" stroke="#F5F2F2" stroke-width="0.75"/>
</svg>
